<svg xmlns="http://www.w3.org/2000/svg" viewBox="0 0 54.09 37.3"><defs><style>.cls-1{fill:#231f20;}</style></defs><title>Ресурс 1</title><g id="Слой_2" data-name="Слой 2"><g id="Layer_1" data-name="Layer 1"><path class="cls-1" d="M53.16,5.83a.86.86,0,0,0-.23-.7V4.9A5,5,0,0,0,48,1.4h.47A156.29,156.29,0,0,0,27,0,160.63,160.63,0,0,0,5.6,1.4h.47a5,5,0,0,0-4.9,3.5v.23a.86.86,0,0,1-.23.7A113.31,113.31,0,0,0,0,18.65,113.31,113.31,0,0,0,.93,31.47a.86.86,0,0,0,.23.7v.23a5,5,0,0,0,4.9,3.5H5.6A156.29,156.29,0,0,0,27,37.3a160.63,160.63,0,0,0,21.45-1.4H48a5,5,0,0,0,4.9-3.5v-.23a.86.86,0,0,1,.23-.7,113.32,113.32,0,0,0,.93-12.82A75.88,75.88,0,0,0,53.16,5.83ZM35,19.82,24,27.74a1.17,1.17,0,0,1-1.4,0,1.28,1.28,0,0,1-.7-1.17V10.72a1.28,1.28,0,0,1,.7-1.17,1.49,1.49,0,0,1,1.4,0l11,7.93a1.78,1.78,0,0,1,.47,1.17A.85.85,0,0,1,35,19.82Z"/></g></g></svg>